# xmcd
#
# Track frame offsets:
#	150
#	18042
#	34277
#	48277
#	65190
#	83137
#	104445
#	122445
#	136342
#	150300
#
# Disc length: 2226 seconds
#
# Revision: 1
# Processed by: cddbd v1.4PL0 Copyright (c) Steve Scherf et al.
# Submitted via: EasyCDDAExtractor 5.0.6
#
DISCID=7808b00a
DTITLE=Various Artist - Trail of Tears Commemorative
DYEAR=2001
DGENRE=R&B
TTITLE0=The Decoys - Down in Texas
TTITLE1=The Decoys - Bits and Pieces
TTITLE2=The Decoys - Nadine
TTITLE3=The Decoys - Twenty-Four-7-365
TTITLE4=The Decoys - Desire
TTITLE5=Russell Smith - Don't go to Strangers
TTITLE6=Russell Smith - I'm the Road
TTITLE7=Russell Smith - King is in His Castle
TTITLE8=Russell Smith - We're Gettin' Outta' Here
TTITLE9=Russell Smith - Third Rate Romance
EXTD=
EXTT0=
EXTT1=
EXTT2=
EXTT3=
EXTT4=
EXTT5=
EXTT6=
EXTT7=
EXTT8=
EXTT9=
PLAYORDER=
